PathFileType	4	(X/Y/Z)	S01_0004_Gait_markers.trc
DataRate	CameraRate	NumFrames	NumMarkers	Units	OrigDataRate	OrigDataStartFrame	OrigNumFrames
250.000000	250.000000	4	54	mm	250.000000	80	320
Frame#	Time	HEAD_ANT			R_HEAD			L_HEAD			C7			R_BACK			L_BACK			STERNUM			R_ACROMION			R_HUM_PROX			R_HUM_ANT			R_HUM_POST			R_ELBOW_LAT			R_ELBOW_MED			R_FOREARM			R_WIRST_LAT			R_WRITS_MED			R_HAND			L_ACROMION			L_HUM_PROX			L_HUM_ANT			L_HUM_POST			L_ELBOW_LAT			L_ELBOW_MED			L_FOREARM			L_WRIST_LAT			L_WIRST_MED			L_HAND			R_ILIAC			SACRUM			L_ILIAC			R_GTROCH			R_THIGH__1			R_THIGH_2			R_THIGH_3			R_THIGH_4			R_SHANK_1			R_SHANK_2			R_SHANK_3			R_SHANK_4			R_HEEL			R_FOOT_LAT			R_FOOT_MED			L_GTROCH			L_THIGH_1			L_THIGH_2			L_THIGH_3			L_THIGH_4			L_SHANK_1			L_SHANK_2			L_SHANK_3			L_SHANK_4			L_HEEL			L_FOOT_LAT			L_FOOT_MED			
		X1	Y1	Z1	X2	Y2	Z2	X3	Y3	Z3	X4	Y4	Z4	X5	Y5	Z5	X6	Y6	Z6	X7	Y7	Z7	X8	Y8	Z8	X9	Y9	Z9	X10	Y10	Z10	X11	Y11	Z11	X12	Y12	Z12	X13	Y13	Z13	X14	Y14	Z14	X15	Y15	Z15	X16	Y16	Z16	X17	Y17	Z17	X18	Y18	Z18	X19	Y19	Z19	X20	Y20	Z20	X21	Y21	Z21	X22	Y22	Z22	X23	Y23	Z23	X24	Y24	Z24	X25	Y25	Z25	X26	Y26	Z26	X27	Y27	Z27	X28	Y28	Z28	X29	Y29	Z29	X30	Y30	Z30	X31	Y31	Z31	X32	Y32	Z32	X33	Y33	Z33	X34	Y34	Z34	X35	Y35	Z35	X36	Y36	Z36	X37	Y37	Z37	X38	Y38	Z38	X39	Y39	Z39	X40	Y40	Z40	X41	Y41	Z41	X42	Y42	Z42	X43	Y43	Z43	X44	Y44	Z44	X45	Y45	Z45	X46	Y46	Z46	X47	Y47	Z47	X48	Y48	Z48	X49	Y49	Z49	X50	Y50	Z50	X51	Y51	Z51	X52	Y52	Z52	X53	Y53	Z53	X54	Y54	Z54	

81	0.32	595.4974365234375	1749.1591796875	-301.210784912109	536.9130859375	1697.541870117188	-224.7519531249996	536.5570068359375	1703.143432617188	-372.2739868164059	401.441162109375	1527.505004882812	-303.2998046874997	333.5732421875	1327.794311523438	-240.2791900634763	331.2228088378906	1334.94970703125	-380.6079101562497	580.7380981445312	1369.443237304688	-312.9498596191403	481.4309997558594	1473.339233398438	-135.8313293457028	461.2431335449219	1309.927856445312	-46.45573806762666	528.7578735351562	1228.854248046875	-55.46804809570285	409.9217224121094	1222.259887695312	-28.68099403381321	466.9345397949219	1119.375610351562	-33.09963989257788	426.4725341796875	1116.713134765625	-107.1176300048826	582.381103515625	947.0026245117188	-64.40675354003885	615.9232177734375	886.2474365234375	-116.5500869750975	562.3662109375	856.1665649414062	-62.77205276489239	641.0078125	798.1446533203125	-66.50521087646467	479.2953796386719	1492.991577148438	-474.2973327636715	446.09423828125	1329.77734375	-575.1512451171872	503.3463134765625	1245.71923828125	-583.2795410156248	380.1771240234375	1256.073852539063	-595.9701538085935	432.8292236328125	1149.686157226563	-612.067687988281	387.0758972167969	1147.353637695313	-552.516662597656	529.3300170898438	967.3074951171876	-610.7450561523435	562.0601196289062	901.1337890625001	-563.6898803710935	511.1071472167969	887.2460327148439	-625.1040039062498	580.236572265625	821.6425781250001	-615.5600585937498	497.4477844238281	1081.396850585938	-147.8927612304685	359.1310729980469	1053.308715820312	-310.7028808593748	472.6931762695312	1080.134643554688	-489.3265075683591	449.4536437988281	931.6541748046875	-136.5792846679686	482.7608337402344	650.9874877929688	-171.5668640136717	539.5159912109375	666.588134765625	-170.4959259033202	540.3677978515625	566.4013061523438	-211.0630493164061	477.17626953125	571.9146118164062	-196.7737884521483	452.7677001953125	344.7094421386719	-202.1223907470702	504.3306884765625	321.5075073242188	-224.338150024414	492.3973388671875	238.5336608886719	-245.3165130615234	430.9215087890625	247.7474975585938	-227.8225708007812	366.6395874023438	47.39544677734382	-314.6242980957031	533.1181640625	19.0561199188233	-236.2922058105469	585.7557983398438	29.59483337402351	-341.3958740234375	444.0440368652344	963.5618896484376	-498.5931396484373	608.3540649414062	697.1657714843751	-516.5463867187499	551.3148193359375	705.1772460937501	-530.2446899414061	562.5985717773438	599.4616088867189	-513.8618774414061	623.7853393554688	617.0181274414064	-506.5822448730468	486.7764282226562	370.9790344238282	-505.0157470703124	429.4279479980469	390.8421020507814	-503.729766845703	373.8667907714844	325.3201599121095	-485.3853759765624	427.5270385742188	289.509490966797	-481.9108581542968	231.7694702148438	202.541229248047	-405.8063354492187	346.0947265625	71.73195648193371	-481.1171875	393.6341552734375	67.96751403808602	-392.4793090820312	
82	0.324	600.8182373046875	1749.562255859375	-301.4920043945309	542.3756103515625	1697.940673828125	-225.0778961181637	541.9094848632812	1703.423950195312	-372.6849670410152	406.9174194335938	1527.800903320312	-303.3050842285153	338.98583984375	1328.1396484375	-240.5653076171872	336.2900085449219	1335.42529296875	-381.1330261230466	585.9691772460938	1369.852172851562	-313.0404968261716	486.9485168457031	1473.7216796875	-135.9421081542965	467.0974731445312	1310.273193359375	-46.3646583557126	534.75	1229.336059570312	-55.50534439086887	415.8963317871094	1222.434814453125	-29.06406211853	473.5134582519531	1119.627319335938	-33.37019729614233	433.06884765625	1116.967163085938	-107.4987411499021	589.9409790039062	948.4041137695312	-65.29116058349588	623.3118896484375	887.4939575195312	-117.5560226440428	569.9353637695312	857.0202026367188	-63.713668823242	648.8728637695312	799.1984252929688	-67.48051452636702	484.545166015625	1493.195678710938	-474.5465393066403	450.6910705566406	1330.129028320313	-575.2814941406247	508.0315551757812	1245.886474609375	-583.6403198242185	384.4850463867188	1256.469360351563	-596.1739501953123	439.2931823730469	1149.129272460938	-611.3236083984373	391.2993774414062	1148.002075195313	-552.8656005859373	532.9242553710938	967.4438476562501	-611.1751708984373	565.9187622070312	901.3176879882814	-564.4204101562498	514.6495971679688	887.4310913085939	-625.409973144531	583.7325439453125	821.7217407226564	-616.283020019531	502.7739868164062	1081.3193359375	-148.0447082519529	364.1913146972656	1053.508544921875	-311.1641845703123	477.6183166503906	1080.82763671875	-489.4700012207029	454.0757141113281	931.8816528320312	-136.8350677490232	485.1050415039062	651.3486938476562	-171.4361267089842	542.184326171875	666.5200805664062	-169.4813537597655	542.2820434570312	565.9786987304688	-210.4715270996093	478.8046875	572.379638671875	-196.8951721191405	453.4592895507812	344.9465026855469	-202.154815673828	504.9964294433594	321.6019287109376	-224.3032226562499	492.934326171875	238.7676696777344	-245.2043762207031	431.4984130859375	247.8555908203126	-227.8488311767578	366.8502197265625	47.67020797729499	-315.019287109375	533.1033935546875	19.07583999633794	-236.2661437988281	586.0492553710938	29.60014533996589	-341.236328125	449.33056640625	964.3662719726564	-498.8869628906248	616.0822143554688	698.9750366210939	-516.3866577148436	559.127685546875	706.4125366210939	-530.3280029296874	571.326171875	600.8587036132814	-513.7460937499999	631.9859008789062	618.6891479492189	-506.2514343261718	498.1249694824219	370.6849060058595	-505.9212341308593	439.9662475585938	389.9920043945314	-503.7339477539061	385.9201354980469	323.1704101562501	-485.7266845703124	440.0997314453125	288.3093566894532	-482.1737976074218	245.6304168701172	197.555404663086	-406.1940917968749	363.2503967285156	70.12175750732433	-481.8350830078125	410.6245727539062	66.60803985595712	-393.40234375	
83	0.328	606.1807861328125	1749.8955078125	-301.8316955566402	547.8762817382812	1698.255004882812	-225.3605041503903	547.3230590820312	1703.623657226562	-372.9709472656246	412.1605834960938	1527.989868164062	-303.6033020019528	344.4707641601562	1328.430786132812	-240.306945800781	341.5498657226562	1336.043090820312	-381.2930603027341	591.1285400390625	1370.217529296875	-312.9489746093747	492.4864196777344	1474.068603515625	-136.2039794921872	472.8796691894531	1310.524291992188	-46.57346725463838	540.7207641601562	1229.76953125	-55.54649734497043	421.8832092285156	1222.51318359375	-29.29310035705539	479.3714294433594	1120.015380859375	-33.59752273559545	439.2697448730469	1117.124145507812	-107.5077896118162	596.9769897460938	949.2464599609375	-66.14931488037088	630.924560546875	888.6508178710938	-118.4242782592771	577.760498046875	857.7880859375	-64.74660491943341	657.0083618164062	800.5581665039062	-68.6488723754881	489.829345703125	1493.347290039062	-474.8016662597653	455.1358337402344	1330.498168945313	-575.5667724609372	512.2996215820312	1246.136596679688	-584.223449707031	389.0078735351562	1256.883178710938	-596.0326538085935	441.289794921875	1150.461303710938	-612.4362792968748	395.4894714355469	1148.411376953125	-552.952697753906	536.7571411132812	967.5524291992189	-611.7806396484373	569.68798828125	901.2536621093751	-564.0300292968748	518.2313842773438	887.5466918945314	-625.5968017578123	587.3463745117188	821.7519531250001	-616.8806152343748	505.2196044921875	1080.52783203125	-147.4598236083982	369.2303161621094	1053.91455078125	-311.0914916992185	482.649169921875	1081.2216796875	-489.598937988281	458.6687927246094	932.033935546875	-137.0538177490232	487.4385681152344	651.554443359375	-171.6215057373045	544.3705444335938	666.23486328125	-169.7904968261717	544.165283203125	566.0635375976562	-210.2050476074218	480.6229248046875	572.71435546875	-196.7311248779296	454.1145935058594	345.1456298828126	-202.1322479248046	505.6379089355469	321.7509765625001	-224.1777954101562	493.3987731933594	238.9002990722657	-245.1843719482421	432.0252685546875	248.3780059814454	-227.8329162597656	367.0642700195312	48.18749237060554	-315.3746032714844	533.116455078125	19.04704666137701	-236.3378143310547	586.3502807617188	29.5921821594239	-341.0640258789062	454.747314453125	965.1138916015626	-499.1455078124998	623.734619140625	700.4600219726564	-516.1865234374999	566.4901123046875	707.4542846679689	-530.5225830078124	579.4580688476562	601.8798828125001	-513.6167602539061	640.1801147460938	620.2382812500001	-505.9786376953124	509.3671875	370.4202575683595	-505.7556762695312	450.9668579101562	388.6246337890626	-503.7171325683593	398.076904296875	320.9887695312501	-485.9816284179687	452.6822814941406	287.0792541503907	-482.3183593749999	259.5889892578125	192.4613342285157	-406.7148132324218	380.4241333007812	68.23685455322277	-482.7278747558594	427.5907287597656	65.3353805541993	-394.2790832519531	
84	0.332	611.6422119140625	1750.07861328125	-301.8237609863277	553.1358032226562	1698.65478515625	-225.6225128173824	552.7315063476562	1703.870971679688	-373.3555297851559	417.557373046875	1528.26513671875	-303.7228698730465	349.6792602539062	1328.715087890625	-240.2567291259763	346.8126220703125	1336.437255859375	-381.5948791503903	596.3795166015625	1370.420532226562	-313.7666015624997	498.0016174316406	1474.322387695312	-136.4213256835934	478.6157836914062	1310.788696289062	-46.66829681396455	546.694580078125	1230.209350585938	-55.57313537597629	427.8560791015625	1222.615600585938	-29.34310531616184	486.0574645996094	1120.249633789062	-33.80392837524389	445.491943359375	1117.264892578125	-107.9695816040037	604.181884765625	950.2346801757812	-66.8598175048826	638.4173583984375	889.9987182617188	-119.4097900390623	585.5020141601562	858.6014404296875	-65.64035034179669	665.0646362304688	801.8046264648438	-69.73950958251935	495.0208129882812	1493.410522460938	-474.9191894531247	459.8462524414062	1330.763305664063	-575.5814208984372	516.7708740234375	1246.225708007813	-584.5446166992185	393.3523864746094	1257.3056640625	-596.2844238281248	447.7715148925781	1149.7001953125	-611.8292846679685	400.0252075195312	1148.668334960938	-552.9247436523435	540.7581176757812	967.7869873046876	-612.2008056640623	573.60986328125	901.5923461914064	-565.410217285156	521.8656616210938	887.6889648437501	-625.994689941406	590.896484375	821.7407836914064	-617.4462890624998	510.6508178710938	1080.385498046875	-147.5845947265623	374.1871948242188	1054.380493164062	-311.0583801269529	487.6601867675781	1081.7314453125	-489.6663513183591	463.2635498046875	932.18017578125	-137.3368530273436	489.789306640625	651.943359375	-171.2615661621092	546.7877807617188	666.0955200195312	-169.8333282470702	546.0743408203125	565.84716796875	-209.0842285156249	482.5338439941406	573.1632690429688	-195.9525756835936	454.7913208007812	345.3898315429688	-202.1831665039062	506.2618103027344	321.8013610839844	-223.991485595703	493.9505310058594	239.0468902587891	-245.2326660156249	432.493896484375	248.638656616211	-227.9836425781249	367.4722290039062	48.76962280273445	-315.6223449707031	533.130859375	19.03272438049322	-236.37548828125	586.6408081054688	29.66727638244636	-340.8812255859375	460.2467041015625	965.7432861328126	-499.4409484863279	631.3493041992188	701.8766479492189	-516.0499267578124	573.8866577148438	708.4850463867189	-530.6235961914061	587.8067626953125	603.1265869140626	-513.4851074218749	648.3218994140625	621.9389038085939	-505.5897521972655	520.6785888671875	370.2433471679689	-505.9888916015624	462.0179443359375	387.296112060547	-503.9521179199218	410.2635498046875	318.5523681640626	-486.3024597167968	465.4780578613281	285.6206970214845	-482.4257812499999	273.8192443847656	187.3421020507813	-407.2528686523437	397.6301574707031	66.33440399169933	-483.5006408691406	445.4671325683594	64.0758590698243	-394.7524719238281	
